<svg width="192" height="192" viewBox="0 0 32 32" fill="none" xmlns="http://www.w3.org/2000/svg">
  <!-- Dark background circle -->
  <circle cx="16" cy="16" r="16" fill="#0f0f0f"/>
  
  <!-- Modern "S" design -->
  <path d="M8.5 11.5C8.5 9.29086 10.2909 7.5 12.5 7.5H19.5C21.7091 7.5 23.5 9.29086 23.5 11.5C23.5 13.7091 21.7091 15.5 19.5 15.5H12.5C10.2909 15.5 8.5 17.2909 8.5 19.5C8.5 21.7091 10.2909 23.5 12.5 23.5H19.5C21.7091 23.5 23.5 21.7091 23.5 19.5" 
        stroke="#00ff88" 
        stroke-width="2.5" 
        stroke-linecap="round" 
        fill="none"/>
        
  <!-- Subtle glow effect -->
  <path d="M8.5 11.5C8.5 9.29086 10.2909 7.5 12.5 7.5H19.5C21.7091 7.5 23.5 9.29086 23.5 11.5C23.5 13.7091 21.7091 15.5 19.5 15.5H12.5C10.2909 15.5 8.5 17.2909 8.5 19.5C8.5 21.7091 10.2909 23.5 12.5 23.5H19.5C21.7091 23.5 23.5 21.7091 23.5 19.5" 
        stroke="#00ff88" 
        stroke-width="1" 
        stroke-linecap="round" 
        fill="none" 
        opacity="0.4"
        filter="blur(1px)"/>
</svg>