<svg xmlns="http://www.w3.org/2000/svg" viewBox="0 0 64 64" width="64" height="64">
  <defs>
    <linearGradient id="g" x1="0" y1="0" x2="1" y2="1">
      <stop offset="0%" stop-color="#0b1220"/>
      <stop offset="100%" stop-color="#0f0f0f"/>
    </linearGradient>
  </defs>
  <rect x="4" y="4" width="56" height="56" rx="14" fill="url(#g)"/>
  <!-- Stylized Y mark -->
  <path d="M18 18 L32 32 L46 18" fill="none" stroke="#3b82f6" stroke-width="6" stroke-linecap="round"/>
  <path d="M32 32 L32 48" fill="none" stroke="#3b82f6" stroke-width="6" stroke-linecap="round"/>
  <!-- subtle inner stroke -->
  <rect x="6.5" y="6.5" width="51" height="51" rx="12" fill="none" stroke="#1f2937" stroke-width="1.5"/>
</svg>

<svg width="32" height="32" viewBox="0 0 32 32" fill="none" xmlns="http://www.w3.org/2000/svg">
  <!-- Dark background circle -->
  <circle cx="16" cy="16" r="16" fill="#0f0f0f"/>
  
  <!-- Modern "S" design -->
  <path d="M8.5 11.5C8.5 9.29086 10.2909 7.5 12.5 7.5H19.5C21.7091 7.5 23.5 9.29086 23.5 11.5C23.5 13.7091 21.7091 15.5 19.5 15.5H12.5C10.2909 15.5 8.5 17.2909 8.5 19.5C8.5 21.7091 10.2909 23.5 12.5 23.5H19.5C21.7091 23.5 23.5 21.7091 23.5 19.5" 
        stroke="#00ff88" 
        stroke-width="2.5" 
        stroke-linecap="round" 
        fill="none"/>
        
  <!-- Subtle glow effect -->
  <path d="M8.5 11.5C8.5 9.29086 10.2909 7.5 12.5 7.5H19.5C21.7091 7.5 23.5 9.29086 23.5 11.5C23.5 13.7091 21.7091 15.5 19.5 15.5H12.5C10.2909 15.5 8.5 17.2909 8.5 19.5C8.5 21.7091 10.2909 23.5 12.5 23.5H19.5C21.7091 23.5 23.5 21.7091 23.5 19.5" 
        stroke="#00ff88" 
        stroke-width="1" 
        stroke-linecap="round" 
        fill="none" 
        opacity="0.4"
        filter="blur(1px)"/>
</svg> 